<?xml version="1.0" standalone="no"?><svg xmlns="http://www.w3.org/2000/svg" viewBox="0 0 1440 320"><path fill="#ff7700" fill-opacity="1" d="M0,64L6.5,53.3C13,43,26,21,39,37.3C51.9,53,65,107,78,122.7C90.8,139,104,117,117,138.7C129.7,160,143,224,156,250.7C168.6,277,182,267,195,256C207.6,245,221,235,234,240C246.5,245,259,267,272,277.3C285.4,288,298,288,311,282.7C324.3,277,337,267,350,261.3C363.2,256,376,256,389,266.7C402.2,277,415,299,428,304C441.1,309,454,299,467,250.7C480,203,493,117,506,69.3C518.9,21,532,11,545,48C557.8,85,571,171,584,197.3C596.8,224,610,192,623,165.3C635.7,139,649,117,662,112C674.6,107,688,117,701,122.7C713.5,128,726,128,739,133.3C752.4,139,765,149,778,149.3C791.4,149,804,139,817,160C830.3,181,843,235,856,229.3C869.2,224,882,160,895,154.7C908.1,149,921,203,934,213.3C947,224,960,192,973,197.3C985.9,203,999,245,1012,266.7C1024.9,288,1038,288,1051,288C1063.8,288,1077,288,1090,288C1102.7,288,1116,288,1129,266.7C1141.6,245,1155,203,1168,192C1180.5,181,1194,203,1206,197.3C1219.5,192,1232,160,1245,176C1258.4,192,1271,256,1284,234.7C1297.3,213,1310,107,1323,96C1336.2,85,1349,171,1362,170.7C1375.1,171,1388,85,1401,90.7C1414.1,96,1427,192,1434,240L1440,288L1440,0L1433.5,0C1427,0,1414,0,1401,0C1388.1,0,1375,0,1362,0C1349.2,0,1336,0,1323,0C1310.3,0,1297,0,1284,0C1271.4,0,1258,0,1245,0C1232.4,0,1219,0,1206,0C1193.5,0,1181,0,1168,0C1154.6,0,1142,0,1129,0C1115.7,0,1103,0,1090,0C1076.8,0,1064,0,1051,0C1037.8,0,1025,0,1012,0C998.9,0,986,0,973,0C960,0,947,0,934,0C921.1,0,908,0,895,0C882.2,0,869,0,856,0C843.2,0,830,0,817,0C804.3,0,791,0,778,0C765.4,0,752,0,739,0C726.5,0,714,0,701,0C687.6,0,675,0,662,0C648.6,0,636,0,623,0C609.7,0,597,0,584,0C570.8,0,558,0,545,0C531.9,0,519,0,506,0C493,0,480,0,467,0C454.1,0,441,0,428,0C415.1,0,402,0,389,0C376.2,0,363,0,350,0C337.3,0,324,0,311,0C298.4,0,285,0,272,0C259.5,0,246,0,234,0C220.5,0,208,0,195,0C181.6,0,169,0,156,0C142.7,0,130,0,117,0C103.8,0,91,0,78,0C64.9,0,52,0,39,0C25.9,0,13,0,6,0L0,0Z"></path></svg>